<?xml version="1.0" encoding="UTF-8"?> <svg xmlns="http://www.w3.org/2000/svg" width="38" height="38" viewBox="0 0 38 38" fill="none"> <path d="M36.5 19.5C36.5 29.4411 28.4411 37.5 18.5 37.5C8.55887 37.5 0.5 29.4411 0.5 19.5C0.5 9.55887 8.55887 1.5 18.5 1.5C28.4411 1.5 36.5 9.55887 36.5 19.5Z" stroke="#24292B"></path> <path d="M26.6661 16.2183C26.4821 15.5422 25.9393 15.0097 25.2518 14.8293C24.0036 14.5 19 14.5 19 14.5C19 14.5 13.9964 14.5 12.7482 14.8275C12.0589 15.008 11.5179 15.5404 11.3339 16.2166C11 17.4427 11 20 11 20C11 20 11 22.5573 11.3339 23.7817C11.5179 24.4578 12.0607 24.9903 12.7482 25.1707C13.9964 25.5 19 25.5 19 25.5C19 25.5 24.0036 25.5 25.2518 25.1707C25.9411 24.9903 26.4821 24.4578 26.6661 23.7817C27 22.5573 27 20 27 20C27 20 27 17.4427 26.6661 16.2183ZM17.4107 22.3471V17.6529L21.5536 19.9825L17.4107 22.3471Z" fill="#24292B"></path> </svg> 