<?xml version="1.0" encoding="UTF-8"?> <svg xmlns="http://www.w3.org/2000/svg" width="38" height="38" viewBox="0 0 38 38" fill="none"> <path d="M36.5 19.5C36.5 29.4411 28.4411 37.5 18.5 37.5C8.55887 37.5 0.5 29.4411 0.5 19.5C0.5 9.55887 8.55887 1.5 18.5 1.5C28.4411 1.5 36.5 9.55887 36.5 19.5Z" stroke="#24292B"></path> <mask id="mask0_233_12200" style="mask-type:luminance" maskUnits="userSpaceOnUse" x="11" y="12" width="17" height="16"> <path d="M27.8 12H11V28H27.8V12Z" fill="white"></path> </mask> <g mask="url(#mask0_233_12200)"> <path fill-rule="evenodd" clip-rule="evenodd" d="M16.1588 26.6116C22.1965 26.6116 25.5001 21.6048 25.5001 17.2702C25.5001 17.1294 25.5001 16.9885 25.4937 16.8477C26.134 16.3867 26.691 15.804 27.1328 15.1446C26.5437 15.4071 25.9099 15.58 25.2441 15.6632C25.9227 15.2598 26.4413 14.6132 26.691 13.8449C26.0572 14.2226 25.3529 14.4915 24.6038 14.6388C24.002 13.9985 23.1504 13.6016 22.2093 13.6016C20.3973 13.6016 18.9247 15.0742 18.9247 16.8861C18.9247 17.1422 18.9567 17.3919 19.008 17.6352C16.2805 17.5007 13.8603 16.1882 12.2405 14.2034C11.9587 14.69 11.7987 15.2534 11.7987 15.8553C11.7987 16.9949 12.3813 18.0001 13.2585 18.5892C12.7206 18.57 12.2148 18.4227 11.7731 18.1794C11.7731 18.1922 11.7731 18.205 11.7731 18.2242C11.7731 19.812 12.9063 21.1438 14.4045 21.4447C14.1292 21.5216 13.8411 21.56 13.5402 21.56C13.3289 21.56 13.124 21.5408 12.9255 21.5024C13.3417 22.8084 14.5582 23.756 15.9924 23.7816C14.8655 24.6652 13.4505 25.1902 11.9139 25.1902C11.6514 25.1902 11.3889 25.1774 11.1328 25.1454C12.5798 26.0673 14.3085 26.6116 16.1588 26.6116Z" fill="#24292B"></path> </g> </svg> 