<?xml version="1.0" encoding="UTF-8"?> <svg xmlns="http://www.w3.org/2000/svg" width="38" height="38" viewBox="0 0 38 38" fill="none"> <path d="M36.5 19.5C36.5 29.4411 28.4411 37.5 18.5 37.5C8.55887 37.5 0.5 29.4411 0.5 19.5C0.5 9.55887 8.55887 1.5 18.5 1.5C28.4411 1.5 36.5 9.55887 36.5 19.5Z" stroke="#24292B"></path> <mask id="mask0_233_12193" style="mask-type:luminance" maskUnits="userSpaceOnUse" x="11" y="12" width="16" height="16"> <path d="M27 12H11V28H27V12Z" fill="white"></path> </mask> <g mask="url(#mask0_233_12193)"> <path fill-rule="evenodd" clip-rule="evenodd" d="M15.7016 12.0481C16.5549 12.0092 16.8273 12 19 12C21.1726 12 21.4451 12.0092 22.2984 12.0481C23.1499 12.087 23.7314 12.2222 24.2403 12.42C24.7664 12.6244 25.2125 12.898 25.6573 13.3427C26.102 13.7875 26.3756 14.2336 26.58 14.7597C26.7778 15.2686 26.913 15.8501 26.9518 16.7016C26.9908 17.5549 27 17.8273 27 20C27 22.1726 26.9908 22.4451 26.9518 23.2984C26.913 24.1499 26.7778 24.7314 26.58 25.2403C26.3756 25.7664 26.102 26.2125 25.6573 26.6573C25.2125 27.102 24.7664 27.3756 24.2403 27.58C23.7314 27.7778 23.1499 27.913 22.2984 27.9518C21.4451 27.9908 21.1726 28 19 28C16.8273 28 16.5549 27.9908 15.7016 27.9518C14.8501 27.913 14.2686 27.7778 13.7597 27.58C13.2336 27.3756 12.7875 27.102 12.3427 26.6573C11.898 26.2125 11.6244 25.7664 11.42 25.2403C11.2222 24.7314 11.087 24.1499 11.0481 23.2984C11.0092 22.4451 11 22.1726 11 20C11 17.8273 11.0092 17.5549 11.0481 16.7016C11.087 15.8501 11.2222 15.2686 11.42 14.7597C11.6244 14.2336 11.898 13.7875 12.3427 13.3427C12.7875 12.898 13.2336 12.6244 13.7597 12.42C14.2686 12.2222 14.8501 12.087 15.7016 12.0481ZM23.7182 13.7635C23.4363 13.654 23.0127 13.5236 22.2327 13.4881C21.3891 13.4496 21.1361 13.4414 19 13.4414C16.8639 13.4414 16.6109 13.4496 15.7673 13.4881C14.9873 13.5236 14.5637 13.654 14.2818 13.7635C13.9084 13.9086 13.6419 14.082 13.362 14.362C13.082 14.6419 12.9087 14.9084 12.7636 15.2818C12.654 15.5637 12.5237 15.9873 12.4881 16.7673C12.4496 17.6108 12.4414 17.8639 12.4414 20C12.4414 22.1361 12.4496 22.3891 12.4881 23.2326C12.5237 24.0126 12.654 24.4362 12.7636 24.7182C12.9087 25.0915 13.0821 25.3581 13.362 25.638C13.6419 25.9179 13.9084 26.0913 14.2818 26.2364C14.5637 26.346 14.9873 26.4763 15.7673 26.5118C16.6108 26.5504 16.8638 26.5586 19 26.5586C21.1362 26.5586 21.3893 26.5504 22.2327 26.5118C23.0127 26.4763 23.4363 26.346 23.7182 26.2364C24.0916 26.0913 24.3581 25.9179 24.638 25.638C24.918 25.3581 25.0914 25.0915 25.2365 24.7182C25.346 24.4362 25.4763 24.0126 25.5119 23.2326C25.5504 22.3891 25.5586 22.1361 25.5586 20C25.5586 17.8639 25.5504 17.6108 25.5119 16.7673C25.4763 15.9873 25.346 15.5637 25.2365 15.2818C25.0914 14.9084 24.918 14.6419 24.638 14.362C24.3581 14.082 24.0916 13.9086 23.7182 13.7635ZM19 15.8919C16.7312 15.8919 14.8919 17.7312 14.8919 20C14.8919 22.2689 16.7312 24.1081 19 24.1081C21.2689 24.1081 23.1081 22.2689 23.1081 20C23.1081 17.7312 21.2689 15.8919 19 15.8919ZM16.3333 20C16.3333 21.4727 17.5272 22.6666 19 22.6666C20.4727 22.6666 21.6666 21.4727 21.6666 20C21.6666 18.5272 20.4727 17.3333 19 17.3333C17.5272 17.3333 16.3333 18.5272 16.3333 20ZM23.2704 16.6896C23.8006 16.6896 24.2304 16.2598 24.2304 15.7296C24.2304 15.1994 23.8006 14.7696 23.2704 14.7696C22.7402 14.7696 22.3104 15.1994 22.3104 15.7296C22.3104 16.2598 22.7402 16.6896 23.2704 16.6896Z" fill="#24292B"></path> </g> </svg> 