<?xml version="1.0" encoding="UTF-8"?> <svg xmlns="http://www.w3.org/2000/svg" width="129" height="28" viewBox="0 0 129 28" fill="none"> <g clip-path="url(#clip0_233_12165)"> <mask id="mask0_233_12165" style="mask-type:luminance" maskUnits="userSpaceOnUse" x="0" y="0" width="129" height="28"> <path d="M128.728 0H0V28H128.728V0Z" fill="white"></path> </mask> <g mask="url(#mask0_233_12165)"> <path d="M29.0402 25.7564H21.1457V17.0742L13.2513 10.0478V2.31798H29.0402V25.7564ZM2.72525 25.7564V2.31798H10.6197V11.0178L18.5142 18.0443V25.7564H2.72525ZM31.6717 -0.0234375H0.09375V28.1H31.6717V-0.0234375Z" fill="#2B313F"></path> <path d="M56.3094 9.47958L48.1253 17.0793H55.8836V18.6314H43.8203V18.605L52.0045 11.0053H44.2783V9.45312H56.3119V9.47958H56.3094Z" fill="#2B313F"></path> <path d="M107.49 18.6295L99.927 13.8915V18.6295H97.8203V9.45117H99.927V13.8651L107.277 9.45117H110.52L103.14 13.8386L110.777 18.6295H107.49Z" fill="#2B313F"></path> <path d="M128.77 18.6295L123.041 15.2011H124.104C126.119 15.2011 127.891 14.1759 127.891 12.421V12.2997C127.891 10.5183 126.104 9.45117 124.027 9.45117H115.633V18.6295H117.739V13.8386L125.659 18.6295H128.77ZM117.739 11.0055H124.074C124.862 11.0055 125.589 11.2899 125.802 11.8566C125.817 11.9514 125.832 12.1939 125.832 12.4386C125.832 12.6811 125.817 12.9236 125.802 13.0184C125.589 13.5189 124.862 13.8276 124.074 13.8276H117.739V11.0055Z" fill="#2B313F"></path> <path d="M73.4407 16.9977V18.6314H62.7266V9.45312H73.4407V11.0868H64.7738V13.0579H72.9877V14.6916H64.7738V16.9999H73.4407V16.9977Z" fill="#2B313F"></path> <path d="M90.9876 16.9977V18.6314H80.2734V9.45312H90.9876V11.0868H82.3207V13.0579H90.5345V14.6916H82.3207V16.9999H90.9876V16.9977Z" fill="#2B313F"></path> </g> </g> <defs> <clipPath id="clip0_233_12165"> <rect width="128.728" height="28" fill="white"></rect> </clipPath> </defs> </svg> 